<svg width="50" height="50" viewBox="0 0 50 50" fill="none" xmlns="http://www.w3.org/2000/svg">
<path d="M42.7094 16.6437C42.4303 16.3711 42.0557 16.2185 41.6656 16.2185C41.2755 16.2185 40.9009 16.3711 40.6219 16.6437L25 31.8718L9.38123 16.6437C9.10217 16.3711 8.72756 16.2185 8.33747 16.2185C7.94739 16.2185 7.57278 16.3711 7.29372 16.6437C7.15765 16.7762 7.0495 16.9346 6.97565 17.1095C6.9018 17.2845 6.86375 17.4725 6.86375 17.6624C6.86375 17.8523 6.9018 18.0403 6.97565 18.2153C7.0495 18.3903 7.15765 18.5487 7.29372 18.6812L23.9094 34.8749C24.2012 35.1593 24.5925 35.3185 25 35.3185C25.4075 35.3185 25.7988 35.1593 26.0906 34.8749L42.7062 18.6812C42.8423 18.5487 42.9505 18.3903 43.0243 18.2153C43.0982 18.0403 43.1362 17.8523 43.1362 17.6624C43.1362 17.4725 43.0982 17.2845 43.0243 17.1095C42.9505 16.9346 42.8423 16.7762 42.7062 16.6437L42.7094 16.6437Z" fill="#9D6F4D"/>
</svg>
